<?xml version="1.0" encoding="utf-8"?>
<!-- Generator: Adobe Illustrator 23.0.3, SVG Export Plug-In . SVG Version: 6.00 Build 0)  -->
<svg version="1.1" id="Calque_1" xmlns="http://www.w3.org/2000/svg" xmlns:xlink="http://www.w3.org/1999/xlink" x="0px" y="0px"
	 viewBox="0 0 72 73" style="enable-background:new 0 0 72 73;" xml:space="preserve">
<style type="text/css">
	.st0{display:none;fill:none;}
	.st1{display:none;}
	.st2{fill:#FFFFFF;stroke:#FFFFFF;stroke-miterlimit:10;}
	.st3{fill:none;stroke:#FFFFFF;stroke-width:2;stroke-miterlimit:10;}
	.st4{fill:url(#SVGID_1_);stroke:url(#SVGID_2_);stroke-width:3;stroke-miterlimit:10;}
	.st5{fill:#FFFFFF;}
</style>
<circle class="st0" cx="37" cy="37.77" r="30.97"/>
<rect x="0" class="st1" width="276" height="136"/>
<g>
	<path class="st2" d="M36.27,13.63c-3.56,0-6.73,1.66-8.78,4.25c0.88-0.47,1.84-0.81,2.86-1c1.65-1.23,3.7-1.96,5.92-1.96
		c3.88,0,7.23,2.23,8.85,5.47h1.42C44.83,16.42,40.88,13.63,36.27,13.63z"/>
	<path class="st2" d="M27.42,20.4c0.69-1.39,1.7-2.59,2.94-3.51c-1.02,0.19-1.98,0.53-2.86,1c-0.6,0.76-1.11,1.6-1.5,2.51H27.42z"/>
</g>
<path class="st2" d="M24.69,41.21c-0.55,1.75-1.96,2.8-3.83,2.8c-2.28,0-4.14-1.87-4.22-4.22l-1.2-0.18c0,0,0,0.01,0,0.01
	c0,3.1,2.42,5.62,5.41,5.62c2.47,0,4.53-1.69,5.18-4.04L24.69,41.21z"/>
<path class="st2" d="M48.04,41.25c0.55,1.75,1.96,2.76,3.83,2.76c2.28,0,4.14-1.87,4.22-4.22l1.2-0.18c0,0,0,0.01,0,0.01
	c0,3.1-2.42,5.62-5.41,5.62c-2.47,0-4.53-1.65-5.18-4H48.04z"/>
<circle class="st3" cx="45.11" cy="23.88" r="3.81"/>
<circle class="st3" cx="36.27" cy="35.71" r="1.93"/>
<circle class="st3" cx="44.1" cy="48.69" r="1.65"/>
<circle class="st3" cx="56.11" cy="37.63" r="1.65"/>
<circle class="st3" cx="16.43" cy="37.63" r="1.65"/>
<circle class="st3" cx="28.58" cy="47.61" r="1.65"/>
<circle class="st3" cx="36.13" cy="66.05" r="3.38"/>
<circle class="st3" cx="26.71" cy="23.88" r="3.81"/>
<line class="st3" x1="36.27" y1="38.08" x2="36.27" y2="62.29"/>
<line class="st3" x1="44.1" y1="34.18" x2="44.1" y2="47.04"/>
<line class="st3" x1="28.58" y1="34.18" x2="28.58" y2="46.07"/>
<line class="st3" x1="47.37" y1="27.28" x2="47.37" y2="41.25"/>
<line class="st3" x1="25.37" y1="27.68" x2="25.37" y2="41.21"/>
<g>
	<linearGradient id="SVGID_1_" gradientUnits="userSpaceOnUse" x1="2.2327" y1="36.1487" x2="69.7673" y2="36.1487">
		<stop  offset="4.795011e-08" style="stop-color:#03CAF9"/>
		<stop  offset="0.165" style="stop-color:#03D3F5"/>
		<stop  offset="0.4385" style="stop-color:#02EDE9"/>
		<stop  offset="0.5674" style="stop-color:#01FBE3"/>
		<stop  offset="0.8652" style="stop-color:#0075BE"/>
		<stop  offset="0.9944" style="stop-color:#005B97"/>
	</linearGradient>
	<linearGradient id="SVGID_2_" gradientUnits="userSpaceOnUse" x1="0.7327" y1="36.3859" x2="71.2673" y2="36.3859">
		<stop  offset="2.131116e-08" style="stop-color:#03CAF9"/>
		<stop  offset="0.165" style="stop-color:#03D3F5"/>
		<stop  offset="0.4385" style="stop-color:#02EDE9"/>
		<stop  offset="0.5674" style="stop-color:#01FBE3"/>
		<stop  offset="0.8652" style="stop-color:#0075BE"/>
		<stop  offset="0.9944" style="stop-color:#005B97"/>
	</linearGradient>
	<path class="st4" d="M69.77,36.77C69.77,18.12,54.65,3,36,3S2.23,18.12,2.23,36.77c0,15.51,10.45,28.57,24.7,32.53v-2.91
		c-12.68-3.88-21.9-15.67-21.9-29.62C5.03,19.66,18.89,5.8,36,5.8s30.97,13.87,30.97,30.97c0,13.81-9.03,25.5-21.51,29.5v2.92
		C59.5,65.1,69.77,52.13,69.77,36.77z"/>
</g>
<g>
	<path class="st5" d="M82.84,96.37c0-7.48,5.83-13.02,13.77-13.02c7.91,0,13.77,5.5,13.77,13.02s-5.86,13.02-13.77,13.02
		C88.67,109.39,82.84,103.85,82.84,96.37z M104.49,96.37c0-4.78-3.38-8.06-7.88-8.06s-7.88,3.27-7.88,8.06s3.38,8.06,7.88,8.06
		S104.49,101.15,104.49,96.37z"/>
	<path class="st5" d="M113.19,96.37c0-7.59,5.83-13.02,13.67-13.02c4.35,0,7.98,1.58,10.36,4.46l-3.74,3.45
		c-1.69-1.94-3.81-2.95-6.33-2.95c-4.71,0-8.06,3.31-8.06,8.06s3.34,8.06,8.06,8.06c2.52,0,4.64-1.01,6.33-2.99l3.74,3.45
		c-2.37,2.91-6.01,4.5-10.39,4.5C119.02,109.39,113.19,103.96,113.19,96.37z"/>
	<path class="st5" d="M146.1,88.53h-8.06v-4.75h21.94v4.75h-8.06v20.43h-5.83V88.53z"/>
	<path class="st5" d="M161.17,96.37c0-7.48,5.83-13.02,13.77-13.02c7.91,0,13.78,5.5,13.78,13.02s-5.86,13.02-13.78,13.02
		C167,109.39,161.17,103.85,161.17,96.37z M182.82,96.37c0-4.78-3.38-8.06-7.88-8.06c-4.5,0-7.88,3.27-7.88,8.06
		s3.38,8.06,7.88,8.06C179.44,104.42,182.82,101.15,182.82,96.37z"/>
	<path class="st5" d="M214.94,92.92c0,5.61-4.21,9.1-10.93,9.1h-5.07v6.94h-5.83V83.78h10.9C210.73,83.78,214.94,87.27,214.94,92.92
		z M209.04,92.92c0-2.77-1.8-4.39-5.36-4.39h-4.75v8.74h4.75C207.24,97.27,209.04,95.65,209.04,92.92z"/>
	<path class="st5" d="M218.75,97.88v-14.1h5.83v13.88c0,4.78,2.09,6.76,5.61,6.76c3.56,0,5.61-1.98,5.61-6.76V83.78h5.75v14.1
		c0,7.41-4.24,11.51-11.4,11.51S218.75,105.29,218.75,97.88z"/>
	<path class="st5" d="M245.33,106.47l1.98-4.39c2.12,1.55,5.29,2.63,8.31,2.63c3.45,0,4.86-1.15,4.86-2.7
		c0-4.71-14.64-1.47-14.64-10.83c0-4.28,3.45-7.84,10.61-7.84c3.17,0,6.4,0.76,8.74,2.23l-1.8,4.42c-2.34-1.33-4.75-1.98-6.98-1.98
		c-3.45,0-4.78,1.29-4.78,2.88c0,4.64,14.64,1.44,14.64,10.68c0,4.21-3.49,7.8-10.68,7.8C251.59,109.39,247.56,108.2,245.33,106.47z
		"/>
</g>
<g>
	<path class="st5" d="M90.98,115.8v8.06h-1.87v-3.31h-3.66v3.31h-1.87v-8.06h1.87v3.18h3.66v-3.18H90.98z"/>
	<path class="st5" d="M108.28,121v2.86h-1.87v-2.88l-3.12-5.18h1.98l2.15,3.58l2.15-3.58h1.83L108.28,121z"/>
	<path class="st5" d="M130.61,118.72c0,1.8-1.35,2.91-3.5,2.91h-1.62v2.22h-1.87v-8.06h3.49
		C129.27,115.8,130.61,116.91,130.61,118.72z M128.73,118.72c0-0.89-0.58-1.41-1.72-1.41h-1.52v2.8h1.52
		C128.15,120.12,128.73,119.6,128.73,118.72z"/>
	<path class="st5" d="M149.69,122.36v1.5h-6.24v-8.06h6.09v1.5h-4.24v1.75h3.74v1.45h-3.74v1.87H149.69z"/>
	<path class="st5" d="M167.83,123.86l-1.56-2.25h-0.09h-1.63v2.25h-1.87v-8.06h3.49c2.15,0,3.5,1.12,3.5,2.93
		c0,1.21-0.61,2.1-1.66,2.55l1.81,2.59H167.83z M166.08,117.32h-1.52v2.81h1.52c1.14,0,1.72-0.53,1.72-1.41
		C167.79,117.83,167.22,117.32,166.08,117.32z"/>
	<path class="st5" d="M190.42,115.8l-3.49,8.06h-1.84l-3.48-8.06h2.02l2.45,5.76l2.49-5.76H190.42z"/>
	<path class="st5" d="M202.6,115.8h1.87v8.06h-1.87V115.8z"/>
	<path class="st5" d="M217.25,123.07l0.63-1.41c0.68,0.5,1.69,0.84,2.66,0.84c1.11,0,1.56-0.37,1.56-0.86
		c0-1.51-4.69-0.47-4.69-3.47c0-1.37,1.11-2.51,3.4-2.51c1.01,0,2.05,0.24,2.8,0.71l-0.58,1.42c-0.75-0.43-1.52-0.63-2.23-0.63
		c-1.11,0-1.53,0.42-1.53,0.92c0,1.49,4.69,0.46,4.69,3.42c0,1.35-1.12,2.5-3.42,2.5C219.26,124,217.97,123.62,217.25,123.07z"/>
	<path class="st5" d="M236.24,119.83c0-2.4,1.87-4.17,4.41-4.17c2.54,0,4.41,1.76,4.41,4.17c0,2.41-1.88,4.17-4.41,4.17
		C238.11,124,236.24,122.22,236.24,119.83z M243.18,119.83c0-1.53-1.08-2.58-2.52-2.58c-1.44,0-2.52,1.05-2.52,2.58
		s1.08,2.58,2.52,2.58C242.09,122.41,243.18,121.36,243.18,119.83z"/>
	<path class="st5" d="M263.12,123.86l-1.56-2.25h-0.09h-1.63v2.25h-1.87v-8.06h3.49c2.15,0,3.5,1.12,3.5,2.93
		c0,1.21-0.61,2.1-1.66,2.55l1.81,2.59H263.12z M261.37,117.32h-1.52v2.81h1.52c1.14,0,1.72-0.53,1.72-1.41
		C263.08,117.83,262.51,117.32,261.37,117.32z"/>
</g>
</svg>
